<svg width="41" height="40" viewBox="0 0 41 40" fill="none" xmlns="http://www.w3.org/2000/svg">
<path d="M20.5 19.9545C24.765 15.7727 35.4275 23.0909 20.5 32.5C5.57254 23.0909 16.235 15.7727 20.5 19.9545Z" fill="#198754"/>
<path d="M9.60938 0C8.80281 0 8.04331 0.370486 7.55938 1L0.25625 10.5C0.0899154 10.7164 0 10.9795 0 11.25V37.5C0 38.8807 1.14727 40 2.5625 40H38.4375C39.8527 40 41 38.8807 41 37.5V11.25C41 10.9795 40.9101 10.7164 40.7437 10.5L33.4406 1C32.9567 0.370485 32.1972 0 31.3906 0H9.60938ZM9.60938 2.5H19.2188V10H3.84375L9.60938 2.5ZM21.7812 10V2.5H31.3906L37.1562 10H21.7812ZM38.4375 12.5V37.5H2.5625V12.5H38.4375Z" fill="#198754"/>
</svg>
