<svg width="32" height="34" viewBox="0 0 32 34" fill="none" xmlns="http://www.w3.org/2000/svg">
<rect width="32" height="34" fill="white"/>
<path d="M10.3973 15.1093C10.3973 15.1093 12.8087 7.91691 14.6776 6.74827C16.5464 5.57963 17.7923 7.41015 17.7923 8.73394C17.7923 10.0577 16.9375 14.1838 16.9375 14.1838L23.7671 13.2767C25.4948 13.0472 26.9355 14.6654 26.6241 16.4856L25.1313 25.2088C24.878 26.6892 23.5484 27.6756 22.1531 27.4182L10.3973 25.2494M10.3973 15.1093V25.2494M10.3973 15.1093H7.35891C6.8217 15.1093 6.30648 15.336 5.92661 15.7396C5.54674 16.1432 5.33334 16.6907 5.33334 17.2614V23.0973C5.33334 23.6681 5.54674 24.2155 5.92661 24.6191C6.30648 25.0227 6.8217 25.2494 7.35891 25.2494H10.3973" stroke="#198754" stroke-width="1.5" stroke-linecap="round" stroke-linejoin="round"/>
</svg>
